<?xml version="1.0" encoding="UTF-8" standalone="no"?>
<svg
   width="1024"
   height="1024"
   viewBox="0 0 1024 1024"
   version="1.1"
   id="svg20"
   xmlns="http://www.w3.org/2000/svg"
   xmlns:svg="http://www.w3.org/2000/svg">
  <defs
     id="defs24" />
  <g
     transform="translate(192.000000 6.000000) scale(1.407470 1.407143)"
     shape-rendering="geometricPrecision"
     id="g18">
    <path
       fill="#512518"
       fill-rule="evenodd"
       d="m 9,261 c -1.5164659,17.40907 4.834534,29.95989 22.4375,35.5625 C 60.958334,314.70833 90.479165,332.85417 120,351 80,346 40,341 0,336 c 16.35643,34.61689 55.361165,33.1093 87.681536,41.51907 21.982634,1.32492 35.710694,7.43817 22.193464,29.35593 -7.30402,14.28836 -4.96771,48.71636 -27.047949,32.13568 C 68.086877,433.08036 50.524049,425.82455 75.9375,438.75 c 15.976574,6.55243 41.99431,33.1106 37.8125,-0.5 6.41666,-46.08333 12.83334,-92.16667 19.25,-138.25 -6.63283,17.64243 -13.74224,33.13669 -28.62077,13.61111 C 80.586153,294.74074 56.793077,275.87037 33,257 51.067022,267.68343 52.733549,287.62459 35.887248,295.56932 26.924832,284.04621 17.962416,272.52311 9,261 Z m 98,96 c 31.6072,-4.58084 5.2609,38.07436 -2.59573,10.32249 C 105.64316,364.52372 104.31588,359.43589 107,357 Z M 5,340 c 24.782359,-15.85003 53.676833,7.58259 81.025138,9.99484 35.712602,13.6393 0.812349,31.39646 -20.637658,17.94805 C 43.927135,374.69756 53.492806,332.49299 42.474674,360.5518 29.261814,357.33901 5.9201462,357.98346 5,340 Z m 109,-14 c 22.95313,2.12087 11.14017,37.61472 -3.5437,14.12728 C 110.13402,335.03264 113.81652,331.00497 114,326 Z M 50,283 c 21.890841,4.32794 47.612531,28.01894 58.44756,45.22535 C 98.146757,348.25657 71.340084,312.32818 55.364518,308.06847 43.337535,304.03098 46.553379,291.67514 50,283 Z M 27,407 c 19.154458,27.84563 53.489343,55.59345 63.1875,83.5 -9.886933,16.81332 -40.934601,41.7702 -37.125,53.3125 31.248475,-0.0792 67.41445,23.52872 93.9375,0.6875 29.11799,-18.87577 56.71398,-43.06913 93.8125,-34.0625 14.24632,-0.29161 72.51625,2.12804 33.17637,-1.46375 C 226.65924,503.64917 179.32962,498.32458 132,493 c 14.7386,10.63092 75.26302,20.32364 34.21443,31.88002 -19.23202,8.18617 -37.61442,22.76955 -59.53671,18.442 C 94.118477,542.88135 81.559239,542.44067 69,542 81,522 93,502 105,482 79,457 53,432 27,407 Z m 409,-66 c -8,11 -16,22 -24,33 -36.77749,-22.49177 -5.74814,51.37354 -40.625,26.75 -17.25665,-4.96376 -34.64277,-15.77378 -28.28307,8.96913 -16.5907,4.81639 -37.68735,20.87147 -41.68227,-6.5812 0.89185,26.87041 16.25625,23.91344 34.38231,15.26475 10.65158,-3.63672 26.43007,-10.84837 11.28232,3.50446 C 337.71619,433.60476 328.3581,445.30238 319,457 337.80125,446.1575 372.4429,422.6548 381.3125,419.75 353.54166,448.16666 325.77084,476.58334 298,505 c 28.7501,-28.26612 74.27319,-45.89633 92.4375,-80.875 6.20639,-14.86582 5.91355,-66.89807 21.0625,-30.625 9.94406,12.08459 35.21193,-0.49923 30.6965,-18.59606 -7.85625,16.11071 -23.07872,20.17044 -23.82037,-0.35654 24.04375,4.07379 17.88384,-17.83024 17.65764,-32.53423 z M 127,463 c 17.90169,6.00263 35.94541,17.41798 48.34753,-2.84158 6.55062,39.76071 61.97562,15.04515 89.89197,17.75653 12.24683,-5.25442 48.53034,-18.61757 16.2605,-11.28995 -22.338,0.90485 -55.9291,14.19038 -71.25,7.375 -0.17552,-13.13433 5.98064,-63.53568 1.78712,-53.02088 C 206.69141,439.98608 201.34571,458.99304 196,478 172.30252,482.21618 185.08109,433.53282 164.56094,465.09535 154.99501,476.48951 138.87139,463.63163 127,463 Z M 251,248 c -5.4862,24.44808 -23.89534,61.29156 -21.3125,78 21.03897,-3.86103 44.55768,-16.66383 63.35284,-12.19997 4.14897,-22.40739 -28.16535,7.07424 -41.46091,1.34747 C 221.01011,328.83486 253.91364,263.36183 251,248 Z m 20,134 c -10.65313,-12.62742 -28.45051,-3.22759 -42.99463,-4.57481 -14.75555,-3.01181 -9.72754,16.32482 -13.68163,25.51485 -4.53124,14.25617 24.4599,8.74001 6.5608,-0.0325 C 221.32773,367.49181 250.04395,383.32746 271,382 Z M 105,235 c 8.3748,15.40698 37.08387,6.41569 35,27 7.92124,-26.26306 -18.07931,-24.31554 -35,-27 z m 186,84 c -3.8031,16.0998 14.45554,30.88961 -2.90851,46.06879 0.41446,28.59089 -0.12633,-18.67982 15.84874,-18.74917 C 297.44572,338.11625 291.55379,329.93337 291,319 Z"
       id="path2" />
    <path
       fill="#ec7460"
       fill-rule="evenodd"
       d="m 413,175 c -102,9.33333 -204,18.66667 -306,28 17.40098,15.07634 63.51599,15.53187 57.5625,42.5 -1.26709,21.37276 -25.42235,75.65067 12.22228,68.23028 20.20062,-10.74271 51.09959,-12.54817 50.22779,-40.89449 C 231.34172,254.5572 235.67086,236.2786 240,218 267.14156,214.2236 293.99179,203.22153 321.37643,204.18129 344.58429,207.4542 367.79214,210.7271 391,214 c 7.33333,-13 14.66667,-26 22,-39 z m -227,57 c -12.71693,7.78579 -8.93826,35.4699 -17.46404,39.74983 C 171.22709,259.03709 165.97817,230.91471 186,232 Z m -32,142 c -8.00243,12.46925 -5.42516,30.49065 -8.96691,45.32563 -4.04579,29.92696 16.91925,-52.22696 10.55933,-32.121 l 0.0834,-6.74825 z m 250,5 c 1.52689,36.79878 24.7431,-3.26692 0,0 z M 118,487 c -6.25132,10.05952 -3.17764,27.10703 10,10.79058 -1.14017,-5.26679 -7.01939,-6.87849 -10,-10.79058 z m 2,-125 c -29.262481,8.04656 5.15366,24.06233 0,0 z"
       id="path4" />
    <path
       fill="#e54a3d"
       fill-rule="evenodd"
       d="m 287,326 c -46,12.66667 -92,25.33333 -138,38 -4.428,31.35178 -21.6536,70.48802 -18.125,97 19.21827,8.90009 35.64664,6.4705 48.125,-12 4.28321,9.66525 10.02825,37.87472 11.5,11.875 11.38687,-28.37372 2.78491,-78.81375 27.25,-92.75 24.56755,-7.9616 73.63288,8.5382 76.34434,-25.57155 C 291.72956,337.03563 289.36478,331.51782 287,326 Z m -133,47 c 6.66009,13.25011 -3.08112,51.75247 -10.53423,50.19189 C 145.82844,407.42248 144.34335,384.42266 154,373 Z m 66,-79 c -16,4 -32,8 -48,12 -1.05179,26.24406 -19.07929,-14.37834 -18.37326,16.01603 -5.7908,20.02807 -0.71829,27.94781 20.62326,17.73397 33.35231,-3.86231 44.95053,-9.39683 45.75,-45.75 z M 94,530 c 22.51942,1.9037 74.23984,-5.39877 73.7815,-22.52737 C 155.85433,503.98176 143.92717,500.49088 132,497 c -12.65861,16.33008 -16.38243,3.0851 -20.99011,2.71209 C 105.75367,510.03219 99.623101,519.87949 94,530 Z"
       id="path6" />
    <path
       fill="#f8d496"
       fill-rule="evenodd"
       d="m 429,175 c -12.66667,13.66667 -25.33333,27.33333 -38,41 -50.33333,1.33333 -100.66667,2.66667 -151,4 -10.71977,35.58324 -9.46595,82.46741 -27.26135,111.37253 C 191.49244,336.91502 170.24622,342.45751 149,348 146.41672,340.83069 143.88796,307.74301 141.25,326.5625 132.5,369.375 123.75,412.1875 115,455 c 11,-31 22,-62 33,-93 46,-13.33333 92,-26.66667 138,-40 -20.78499,-3.58028 -76.90887,23.68862 -60.125,-12.6875 14.89703,-34.3905 3.22712,-98.30411 56.375,-90.1875 38.77791,-10.27049 75.72443,-7.83241 109.75,14.875 12.33333,-19.66667 24.66667,-39.33333 37,-59 z M 43,425 c 18.998916,20.78173 57.53186,38.16 64,61.125 -6.73286,12.31082 -31.96291,51.72053 -9.75,21.625 9.29687,-19.41858 23.67281,-27.58005 44.08653,-22.35958 C 187.55769,487.92695 233.77884,490.46347 280,493 292.9646,484.61718 327.41576,467.46937 325.5625,464.625 279.70833,471.08334 233.85417,477.54166 188,484 177.57944,461.41503 156.48023,466.48658 135.5,471.25 104.96498,471.71969 89.379484,428.007 53.96316,428.65439 l -5.48158,-1.8272 z M 90,185 c 3.035894,30.6511 30.86187,53.32683 61,54 -28.605,-10.07566 -40.51023,-31.02191 -57.954229,-54.17052 z m 348,70 c -9.64564,13.98946 -24.19184,20.31389 -3.50881,32.10519 1.98496,17.63251 15.31555,-18.25926 19.1739,-15.53444 C 445.40605,269.46626 445.79669,257.64383 438,255 Z M 51,288 c -3.547596,16.00764 50.77409,34.90612 46.787043,29.72626 C 83.459665,308.37664 68.751683,286.79478 51,288 Z m 1,61 c -2.142082,14.21158 43.078907,10.36156 43.548672,8.19565 C 82.398426,355.57182 63.055291,340.77111 52,349 Z m 325,-12 c -9.44751,-6.77719 -21.94236,11.60188 -32.10361,9.62212 C 351.07052,356.93315 379.15429,352.56887 377,337 Z m -17,27 c -24.91735,-14.43953 -12.16535,27.4003 -42.38241,20.49263 -32.88415,-0.60576 22.39103,10.85123 28.15837,-9.42782 C 350.32788,371.13654 355.41056,367.8908 360,364 Z M 8,342 c 6.178771,21.59073 57.525574,6.38607 17.130305,1.27908 C 19.507172,342.15539 13.736674,341.44969 8,342 Z m 350,-20 c -39.3932,-4.51911 -1.01344,29.72259 0,0 z M 17,271 c 0.666607,18.59166 37.613004,24.61417 13.161231,7.47783 C 26.247692,275.30867 22.135243,271.91474 17,271 Z m 281,60 c 1.9984,25.18294 55.43692,6.73665 17.8223,8.65753 C 308.46648,339.91319 303.54053,334.85962 298,331 Z m 88,-13 c -15.55152,3.08193 -30.4252,13.21133 -5.03246,11.27435 C 385.5916,327.62614 384.70534,321.45628 386,318 Z m -3,46 c 11.68721,10.55561 56.70115,-7.07202 21.55051,-0.47191 C 398.1187,368.86612 384.97929,352.88188 383,364 Z"
       id="path8" />
    <path
       fill="#fef3d4"
       fill-rule="evenodd"
       d="m 390,290 c -17.36203,-26.38694 -51.31274,-2.43873 -46.91834,21.25404 -18.21176,-31.94956 -67.43632,-0.39104 -37.37213,23.88901 30.07409,17.79538 40.38236,-33.53595 67.82015,-13.84168 C 389.18649,319.14693 394.63478,303.54704 390,290 Z m 46,-123 c -48.60389,0.42477 -97.94402,-6.83221 -145.5826,5.84727 -41.74401,6.94249 -83.35027,17.45952 -125.29501,21.53403 -17.58914,-1.61383 -69.592737,-7.81202 -65.235118,-6.47037 32.140208,4.08513 64.269108,18.99481 96.683098,10.04673 56.84559,-8.61627 113.42443,-20.66828 170.48771,-26.81377 16.17254,4.89427 53.86125,-10.91318 47.17618,14.80044 C 421.47552,179.61352 428.74523,173.31532 436,167 Z m -62,193 c -30.33107,0.2781 -35.90436,46.00801 -2,43 11.44181,-8.23275 31.19118,-2.90751 20.2164,-25.70157 C 388.94069,369.16386 381.2678,364.16623 374,360 Z M 332,345 C 299.80857,333.64081 277.52037,384.27652 318.46035,384.32229 346.99923,383.42059 345.59972,362.09533 332,345 Z m 49,-16 c 9.12937,13.98099 0.64302,40.20177 27.45592,33.04709 C 452.94838,352.54256 412.18409,305.44924 381,329 Z M 119,219 c 22.96354,10.2759 45.17884,20.92418 31.875,49.25 0.78883,12.51044 -13.21784,51.58092 -0.96626,48.586 0.0816,-27.10265 17.73442,-64.03972 7.59126,-84.711 C 144.66667,227.75 131.83333,223.375 119,219 Z M 18,267 c 3.852122,17.03118 41.028047,20.10059 17.744158,3.95476 C 30.822428,267.31577 24.141637,263.02673 18,267 Z m -8,72 c 9.79098,6.54778 52.331523,7.41731 20.823405,-0.75785 C 24.118987,336.75396 16.27444,335.42066 10,339 Z m 361,-7 c -20.56732,-11.03458 -26.73174,24.50723 -6.90937,4.71844 C 365.13337,333.08905 371.74021,336.58419 371,332 Z m -12,97 c -6.97708,11.10631 -39.16755,30.51875 -31.98811,32.45309 C 340.51621,454.62132 352.69191,442.78729 359,429 Z"
       id="path10" />
    <path
       fill="#783f2f"
       fill-rule="evenodd"
       d="m 451,163 c -123.66667,8.66667 -247.33333,17.33333 -371,26 10.420031,11.94829 42.30702,53.1527 39,46.25 C 113.12016,217.74371 87.07731,188.68133 94.46875,178.78125 209.3125,174.1875 324.15625,169.59375 439,165 c -18.6138,20.33937 -29.57941,65.61592 -53.125,69.875 -25.30205,-9.58785 -49.29826,-28.91157 -77.375,-17.8125 -30.59,5.37608 -72.50891,-0.59369 -65.5,42.4375 -1.76313,14.10638 -9.03251,48.34138 1.5,17.5 10.57255,-25.58672 15.19334,-59.47194 51,-49.875 38.23797,-8.73682 71.31434,2.16682 100.5,27.875 18.33333,-30.66667 36.66667,-61.33333 55,-92 z M 288,312 c 12.10395,15.94891 17.2984,-33.60828 35.04221,-12.7016 17.55428,12.64008 21.78555,3.68194 25.06692,-13.78063 C 376.24352,263.54074 403.44494,294.742 388,323 c 17.15696,-1.91307 33.99502,-0.78084 44.37389,14.51979 4.64077,-5.28556 -22.11871,-25.14804 -34.54848,-25.32384 C 394.47453,299.11061 401.64321,278.92264 382.5,276.5 369.79287,263.34386 356.23184,278.04092 343,282 341.99912,313.04005 304.81315,275.07216 296.33797,302.34551 293.55865,305.56367 290.77932,308.78184 288,312 Z M 147,241 c -11.00907,11.61724 -6.3644,50.09348 -14.25757,71.41932 -2.86447,12.99453 -0.94606,52.03148 -0.11743,48.89318 C 139.08334,323.20833 145.54166,285.10417 152,247 l -2.5,-3 z m 112,199 c -1.8959,10.30709 38.7364,28.69337 13.51976,9.96193 C 268.01317,446.64129 263.50659,443.32064 259,440 Z M 14,259 c -2.156845,12.4212 36.113192,1.03215 7.534026,0 -2.511342,0 -5.022684,0 -7.534026,0 z"
       id="path12" />
    <path
       fill="#dea36e"
       fill-rule="evenodd"
       d="m 380,417 c -29.62623,5.9831 -34.99646,48.8867 -66.64116,57.23272 -27.90936,26.637 -65.85643,17.34302 -100.98384,18.14228 -8.76924,-0.19367 -57.04646,-2.97095 -41.22239,6.66952 C 206.74811,497.58095 242.38717,497.0804 278,496 c 12.87057,10.72656 19.77684,14.15297 20.16704,-4.67884 C 333.82554,474.51464 360.95424,452.09684 380,417 Z m -97,-53 c -27.02988,-0.16559 -49.38941,5.17797 -73.2881,7.71383 C 204.64737,406.25904 197.038,440.55148 191,475 c 13.42678,-30.42656 10.611,-80.7125 34.375,-98.5 15.41682,-5.77826 59.43664,6.88511 57.625,-12.5 z M 69,539 c 37.63849,7.07398 78.32408,2.38354 108.23101,-23.36648 5.23408,-6.66526 -32.35593,12.7216 -44.6415,14.56735 -19.98487,4.58014 -52.128889,4.47556 -31.2363,-19.03597 C 88.889266,516.97318 80.034834,530.383 69,539 Z M 332,341 c 10.98217,26.13727 32.67633,18.36689 53.05252,8.72927 6.02979,-9.84261 -16.43021,-28.30073 -7.38944,-5.87411 -10.58659,17.83585 -41.31436,11.00354 -30.66996,-9.53237 C 338.18358,327.75795 339.97661,327.77107 332,341 Z M 50,299 c 12.46948,13.21686 44.11385,34.74834 56.74623,28.78169 C 94.189724,317.99255 67.675688,307.85133 50,299 Z m 1,58 c 4.715625,9.72952 50.58902,19.86779 45.884233,5.27015 C 81.849359,359.60244 66.256558,358.88528 51,357 Z m 259,48 c -9.88431,27.18563 35.28746,5.02296 5.86774,-2.90221 l -3.41983,0.56317 z m 116,-36 c -21.11321,23.62966 28.68128,21.36217 6.56285,3.09907 l -3.08937,-1.75483 z m -292,57 c -12.26894,7.75029 -13.50875,49.85506 -5.01104,17.81703 C 130.65931,437.87802 132.32966,431.93901 134,426 Z m 52,-193 c -22.3733,-4.84423 -15.7411,63.45518 -12.71651,25.0829 C 173.97764,247.71404 177.10044,239.16584 186,233 Z m -72,97 c -6.41764,20.23319 26.24091,7.47843 0,0 z"
       id="path14" />
    <path
       fill="#341209"
       fill-rule="evenodd"
       d="m 204,511 c -23.69934,11.80907 -41.22373,29.00567 -67.83331,40.05426 C 124.7778,553.70284 113.3889,556.35142 102,559 c 39.8133,2.39698 78.33989,-16.06348 102,-48 z m 46,-130 c 22.05075,8.72162 42.63849,-7.63989 51.68036,20.07915 8.75296,-7.61253 43.72161,1.48496 36.2717,-12.94576 -23.93116,11.76533 -38.71163,3.98401 -53.27523,-11.81104 C 270.17858,370.75554 263.62363,386.59922 250,381 Z m -26,13 c -8.82812,15.43593 -10.38484,26.13272 -8.04024,44.17265 -0.48182,-29.63018 46.32696,23.79841 22.32392,-6.39645 -12.85068,-3.87185 -31.22195,-31.49167 -6.14494,-18.54415 13.81754,5.48928 -15.46391,-9.03492 -6.12961,-19.02751 z M 97,347 c 8.91296,12.30244 36.92217,4.40293 9,0 0.51487,-6.89916 -8.646028,-5.59413 -9,0 z m 247,159 c -2.46895,13.82919 22.07767,23.58618 7.23093,4.54458 l -2.27448,-1.63512 z m -37,14 c -1.6356,-24.75172 -5.17248,7.96867 -17.46591,-6.35394 2.45344,3.70431 12.5142,11.13945 17.46591,6.35394 z"
       id="path16" />
  </g>
</svg>
